<?xml version="1.0" encoding="UTF-8"?>
<svg xmlns="http://www.w3.org/2000/svg" xmlns:xlink="http://www.w3.org/1999/xlink" width="32px" height="32px" viewBox="0 0 32 14" version="1.1">
<g id="surface1">
<path style=" stroke:none;fill-rule:nonzero;fill:rgb(0%,0%,0%);fill-opacity:1;" d="M 2.753906 0.00390625 L 2.339844 1.738281 L 6.15625 1.738281 C 8.144531 1.738281 9.359375 2.535156 9.019531 3.945312 C 8.652344 5.480469 6.914062 6.148438 5.070312 6.148438 L 4.375 6.148438 L 5.277344 2.378906 L 2.183594 2.378906 L 0.867188 7.882812 L 5.253906 7.882812 C 8.550781 7.882812 11.6875 6.152344 12.238281 3.945312 C 12.339844 3.539062 12.324219 2.523438 12.078125 1.921875 C 12.070312 1.898438 12.0625 1.878906 12.039062 1.832031 C 12.03125 1.8125 12.023438 1.722656 12.074219 1.703125 C 12.105469 1.691406 12.15625 1.746094 12.164062 1.761719 C 12.191406 1.832031 12.210938 1.878906 12.210938 1.878906 L 15 9.707031 L 22.105469 1.742188 L 25.113281 1.738281 L 25.839844 1.738281 C 27.828125 1.738281 29.050781 2.535156 28.714844 3.945312 C 28.347656 5.480469 26.601562 6.148438 24.753906 6.148438 L 24.058594 6.148438 L 24.960938 2.378906 L 21.867188 2.378906 L 20.550781 7.882812 L 24.9375 7.882812 C 28.234375 7.882812 31.394531 6.160156 31.921875 3.945312 C 32.453125 1.730469 30.136719 0.00390625 26.824219 0.00390625 L 20.28125 0.00390625 C 20.28125 0.00390625 18.546875 2.042969 18.226562 2.429688 C 16.496094 4.492188 16.191406 5.046875 16.140625 5.191406 C 16.148438 5.046875 16.085938 4.488281 15.347656 2.398438 C 15.152344 1.84375 14.519531 0.00390625 14.519531 0.00390625 Z M 15.113281 9.738281 C 6.765625 9.738281 0 10.691406 0 11.867188 C 0 13.042969 6.765625 13.996094 15.113281 13.996094 C 23.457031 13.996094 30.222656 13.042969 30.222656 11.867188 C 30.222656 10.691406 23.457031 9.738281 15.113281 9.738281 Z M 14.566406 11.199219 C 16.472656 11.199219 18.015625 11.519531 18.015625 11.910156 C 18.015625 12.300781 16.46875 12.617188 14.566406 12.617188 C 12.660156 12.617188 11.113281 12.300781 11.113281 11.910156 C 11.113281 11.519531 12.660156 11.199219 14.566406 11.199219 Z M 14.566406 11.199219 "/>
</g>
</svg>
